# xmcd CD database file
#
# Track frame offsets:
#	150
#	16173
#	26820
#	47640
#	60885
#	76435
#	90880
#	100835
#	119803
#	129718
#
# Disc length: 1908 seconds
#
# Revision: 4
# Processed by: cddbd v1.4PL0 Copyright (c) Steve Scherf et al.
# Submitted via: CDex 1.40Release
#
DISCID=7607720a
DTITLE=Ranch Romance - Western Dream
DYEAR=1989
DGENRE=Country
TTITLE0=When It's Roundup Time In Texas
TTITLE1=Lovesick Blues
TTITLE2=Baby's On The Town
TTITLE3=St. Louis Blues
TTITLE4=Cowboys and Indians
TTITLE5=St. James Avenue
TTITLE6=Gotta Lot Of Rhythm (In My Soul)
TTITLE7=Ain't No Ash WIll Burn
TTITLE8=Why Don't You Love Me (Like You Used To Do)
TTITLE9=Western Dream
EXTD=YEAR: 1989 ID3G: 2
EXTT0=
EXTT1=
EXTT2=
EXTT3=
EXTT4=
EXTT5=
EXTT6=
EXTT7=
EXTT8=
EXTT9=
PLAYORDER=
